<svg id="marker" xmlns="http://www.w3.org/2000/svg" xmlns:xlink="http://www.w3.org/1999/xlink" viewBox="0 0 51 82"><defs><style>.cls-1{fill:url(#linear-gradient);}.cls-2{opacity:0.25;}.cls-3{fill:#7bfffb;}.cls-4{fill:#3d639b;}.cls-5{fill:#fff;}</style><linearGradient id="linear-gradient" x1="25.5" y1="81" x2="25.5" y2="1" gradientUnits="userSpaceOnUse"><stop offset="0" stop-color="#2c83c9"/><stop offset="1" stop-color="#32b3e6"/></linearGradient></defs><path class="cls-1" d="M50,25.5C50,39,36,61,25.5,81,15,61,1,39,1,25.5a24.5,24.5,0,0,1,49,0Z"/><g class="cls-2"><path class="cls-3" d="M25.5,5A20.53,20.53,0,0,1,46,25.5c0,9.73-8.77,25.68-17.25,41.1-1.07,2-2.17,3.94-3.25,5.93-1.08-2-2.18-4-3.25-5.93C13.77,51.18,5,35.23,5,25.5A20.53,20.53,0,0,1,25.5,5m0-4A24.5,24.5,0,0,0,1,25.5C1,39,15,61,25.5,81,36,61,50,39,50,25.5A24.5,24.5,0,0,0,25.5,1Z"/></g><path class="cls-4" d="M25.5,3A22.52,22.52,0,0,1,48,25.5c0,10.24-8.89,26.42-17.5,42.06-1.66,3-3.36,6.12-5,9.18-1.64-3.06-3.34-6.16-5-9.18C11.89,51.92,3,35.74,3,25.5A22.52,22.52,0,0,1,25.5,3m0-2A24.5,24.5,0,0,0,1,25.5C1,39,15,61,25.5,81,36,61,50,39,50,25.5A24.5,24.5,0,0,0,25.5,1Z"/><circle class="cls-5" cx="25.5" cy="25.5" r="8.5"/><g class="cls-2"><path class="cls-3" d="M25.5,17A8.5,8.5,0,1,1,17,25.5,8.51,8.51,0,0,1,25.5,17m0-4A12.5,12.5,0,1,0,38,25.5,12.52,12.52,0,0,0,25.5,13Z"/></g><path class="cls-4" d="M25.5,17A8.5,8.5,0,1,1,17,25.5,8.51,8.51,0,0,1,25.5,17m0-2A10.5,10.5,0,1,0,36,25.5,10.51,10.51,0,0,0,25.5,15Z"/></svg>