<?xml version="1.0" encoding="utf-8"?>
<!-- Generator: Adobe Illustrator 26.1.0, SVG Export Plug-In . SVG Version: 6.00 Build 0)  -->
<svg version="1.1" id="Layer_1" xmlns="http://www.w3.org/2000/svg" xmlns:xlink="http://www.w3.org/1999/xlink" x="0px" y="0px"
	 viewBox="0 0 1000 1000" style="enable-background:new 0 0 1000 1000;" xml:space="preserve">
<g>
	<path d="M978.9,184.3C922.4,127.4,869.6,63.7,804.1,16.9c-60.1-12.5-89,52.5-130.4,82.9c69.8,81,151.1,152.6,226.2,229.3
		C933.8,288.6,1014.4,247.1,978.9,184.3z M864.8,364.6c-75.5-75.9-151.6-151.4-228-226.6c-167.2,166-334.7,331.6-501,498.5
		c75.3,75.8,151,151.3,227.5,226C530.7,696.7,697.9,530.6,864.8,364.6z M12.2,984.7c102.4-27.8,157-45.4,259.4-72.9
		c27.4-8.7,45.6-14,59.7-19.5c-72.5-69-155.8-154.1-228.1-223.8C72.7,773.9,42.6,879.3,12.2,984.7z"/>
</g>
</svg>
